<svg id="SvgjsSvg1006" width="1112.8250732421875" height="627.2375183105469" xmlns="http://www.w3.org/2000/svg" version="1.1" xmlns:xlink="http://www.w3.org/1999/xlink" xmlns:svgjs="http://svgjs.com/svgjs"><defs id="SvgjsDefs1007"><marker id="SvgjsMarker1028" markerWidth="16" markerHeight="12" refX="16" refY="6" viewBox="0 0 16 12" orient="auto" markerUnits="userSpaceOnUse" stroke-dasharray="0,0"><path id="SvgjsPath1029" d="M0,2 L14,6 L0,11 L0,2" fill="#323232" stroke="#323232" stroke-width="2"></path></marker><marker id="SvgjsMarker1032" markerWidth="16" markerHeight="12" refX="16" refY="6" viewBox="0 0 16 12" orient="auto" markerUnits="userSpaceOnUse" stroke-dasharray="0,0"><path id="SvgjsPath1033" d="M0,2 L14,6 L0,11 L0,2" fill="#323232" stroke="#323232" stroke-width="2"></path></marker><marker id="SvgjsMarker1042" markerWidth="16" markerHeight="12" refX="16" refY="6" viewBox="0 0 16 12" orient="auto" markerUnits="userSpaceOnUse" stroke-dasharray="0,0"><path id="SvgjsPath1043" d="M0,2 L14,6 L0,11 L0,2" fill="#323232" stroke="#323232" stroke-width="2"></path></marker><marker id="SvgjsMarker1046" markerWidth="16" markerHeight="12" refX="16" refY="6" viewBox="0 0 16 12" orient="auto" markerUnits="userSpaceOnUse" stroke-dasharray="0,0"><path id="SvgjsPath1047" d="M0,2 L14,6 L0,11 L0,2" fill="#323232" stroke="#323232" stroke-width="2"></path></marker><marker id="SvgjsMarker1050" markerWidth="16" markerHeight="12" refX="16" refY="6" viewBox="0 0 16 12" orient="auto" markerUnits="userSpaceOnUse" stroke-dasharray="0,0"><path id="SvgjsPath1051" d="M0,2 L14,6 L0,11 L0,2" fill="#323232" stroke="#323232" stroke-width="2"></path></marker><marker id="SvgjsMarker1062" markerWidth="16" markerHeight="12" refX="16" refY="6" viewBox="0 0 16 12" orient="auto" markerUnits="userSpaceOnUse" stroke-dasharray="0,0"><path id="SvgjsPath1063" d="M0,2 L14,6 L0,11 L0,2" fill="#323232" stroke="#323232" stroke-width="2"></path></marker><marker id="SvgjsMarker1078" markerWidth="16" markerHeight="12" refX="16" refY="6" viewBox="0 0 16 12" orient="auto" markerUnits="userSpaceOnUse" stroke-dasharray="0,0"><path id="SvgjsPath1079" d="M0,2 L14,6 L0,11 L0,2" fill="#323232" stroke="#323232" stroke-width="2"></path></marker><marker id="SvgjsMarker1088" markerWidth="16" markerHeight="12" refX="16" refY="6" viewBox="0 0 16 12" orient="auto" markerUnits="userSpaceOnUse" stroke-dasharray="0,0"><path id="SvgjsPath1089" d="M0,2 L14,6 L0,11 L0,2" fill="#323232" stroke="#323232" stroke-width="2"></path></marker><marker id="SvgjsMarker1098" markerWidth="16" markerHeight="12" refX="16" refY="6" viewBox="0 0 16 12" orient="auto" markerUnits="userSpaceOnUse" stroke-dasharray="0,0"><path id="SvgjsPath1099" d="M0,2 L14,6 L0,11 L0,2" fill="#323232" stroke="#323232" stroke-width="2"></path></marker><marker id="SvgjsMarker1108" markerWidth="16" markerHeight="12" refX="16" refY="6" viewBox="0 0 16 12" orient="auto" markerUnits="userSpaceOnUse" stroke-dasharray="0,0"><path id="SvgjsPath1109" d="M0,2 L14,6 L0,11 L0,2" fill="#323232" stroke="#323232" stroke-width="2"></path></marker><marker id="SvgjsMarker1114" markerWidth="16" markerHeight="12" refX="16" refY="6" viewBox="0 0 16 12" orient="auto" markerUnits="userSpaceOnUse" stroke-dasharray="0,0"><path id="SvgjsPath1115" d="M0,2 L14,6 L0,11 L0,2" fill="#323232" stroke="#323232" stroke-width="2"></path></marker><marker id="SvgjsMarker1122" markerWidth="16" markerHeight="12" refX="16" refY="6" viewBox="0 0 16 12" orient="auto" markerUnits="userSpaceOnUse" stroke-dasharray="0,0"><path id="SvgjsPath1123" d="M0,2 L14,6 L0,11 L0,2" fill="#323232" stroke="#323232" stroke-width="2"></path></marker><marker id="SvgjsMarker1138" markerWidth="16" markerHeight="12" refX="16" refY="6" viewBox="0 0 16 12" orient="auto" markerUnits="userSpaceOnUse" stroke-dasharray="0,0"><path id="SvgjsPath1139" d="M0,2 L14,6 L0,11 L0,2" fill="#323232" stroke="#323232" stroke-width="2"></path></marker><marker id="SvgjsMarker1150" markerWidth="16" markerHeight="12" refX="16" refY="6" viewBox="0 0 16 12" orient="auto" markerUnits="userSpaceOnUse" stroke-dasharray="0,0"><path id="SvgjsPath1151" d="M0,2 L14,6 L0,11 L0,2" fill="#323232" stroke="#323232" stroke-width="2"></path></marker><marker id="SvgjsMarker1164" markerWidth="16" markerHeight="12" refX="16" refY="6" viewBox="0 0 16 12" orient="auto" markerUnits="userSpaceOnUse" stroke-dasharray="0,0"><path id="SvgjsPath1165" d="M0,2 L14,6 L0,11 L0,2" fill="#323232" stroke="#323232" stroke-width="2"></path></marker><marker id="SvgjsMarker1178" markerWidth="16" markerHeight="12" refX="16" refY="6" viewBox="0 0 16 12" orient="auto" markerUnits="userSpaceOnUse" stroke-dasharray="0,0"><path id="SvgjsPath1179" d="M0,2 L14,6 L0,11 L0,2" fill="#323232" stroke="#323232" stroke-width="2"></path></marker><marker id="SvgjsMarker1186" markerWidth="16" markerHeight="12" refX="16" refY="6" viewBox="0 0 16 12" orient="auto" markerUnits="userSpaceOnUse" stroke-dasharray="0,0"><path id="SvgjsPath1187" d="M0,2 L14,6 L0,11 L0,2" fill="#323232" stroke="#323232" stroke-width="2"></path></marker></defs><g id="SvgjsG1008" transform="translate(154.46892846977784,155.6055302090122)"><path id="SvgjsPath1009" d="M 0 18Q 0 0 18 0L 101.86666361490893 0Q 119.86666361490893 0 119.86666361490893 18L 119.86666361490893 28.73334121704096Q 119.86666361490893 46.73334121704096 101.86666361490893 46.73334121704096L 18 46.73334121704096Q 0 46.73334121704096 0 28.73334121704096L 0 18Z" stroke="rgba(50,50,50,1)" stroke-width="2" fill-opacity="1" fill="#ffffff"></path><g id="SvgjsG1010"><text id="SvgjsText1011" font-family="&quot;Times New Roman&quot;" text-anchor="middle" font-size="17px" width="100px" fill="#323232" font-weight="400" align="middle" lineHeight="125%" anchor="middle" family="&quot;Times New Roman&quot;" size="17px" weight="400" font-style="" opacity="1" y="10.74167060852048" transform="rotate(0)"><tspan id="SvgjsTspan1012" dy="21" x="60"><tspan id="SvgjsTspan1013" style="text-decoration:;">Fire Control</tspan></tspan></text></g></g><g id="SvgjsG1014" transform="translate(25.00047294685828,94.34581793679135)"><path id="SvgjsPath1015" d="M 0 0L 92.49999999999999 0L 92.49999999999999 32.50000000000006L 0 32.50000000000006Z" stroke="rgba(50,50,50,1)" stroke-width="2" fill-opacity="1" fill="#ffffff"></path><g id="SvgjsG1016"><text id="SvgjsText1017" font-family="&quot;Times New Roman&quot;" text-anchor="middle" font-size="17px" width="73px" fill="#323232" font-weight="400" align="middle" lineHeight="125%" anchor="middle" family="&quot;Times New Roman&quot;" size="17px" weight="400" font-style="" opacity="1" y="3.6250000000000284" transform="rotate(0)"><tspan id="SvgjsTspan1018" dy="21" x="46.5"><tspan id="SvgjsTspan1019" style="text-decoration:;">camera</tspan></tspan></text></g></g><g id="SvgjsG1020" transform="translate(723.968085441094,307.19133519292086)"><path id="SvgjsPath1021" d="M 0 18Q 0 0 18 0L 95.33333333333348 0Q 113.33333333333348 0 113.33333333333348 18L 113.33333333333348 21.154471352757923Q 113.33333333333348 39.15447135275792 95.33333333333348 39.15447135275792L 18 39.15447135275792Q 0 39.15447135275792 0 21.154471352757923L 0 18Z" stroke="rgba(50,50,50,1)" stroke-width="2" fill-opacity="1" fill="#ffffff"></path><g id="SvgjsG1022"><text id="SvgjsText1023" font-family="&quot;Times New Roman&quot;" text-anchor="middle" font-size="17px" width="94px" fill="#323232" font-weight="400" align="middle" lineHeight="125%" anchor="middle" family="&quot;Times New Roman&quot;" size="17px" weight="400" font-style="" opacity="1" y="6.952235676378962" transform="rotate(0)"><tspan id="SvgjsTspan1024" dy="21" x="57"><tspan id="SvgjsTspan1025" style="text-decoration:;">result encode</tspan></tspan></text></g></g><g id="SvgjsG1026"><path id="SvgjsPath1027" d="M1037.8277774386938 497.66379370680465L1037.8277774386938 422.0048001262415L780.6347521077605 422.0048001262415L780.6347521077605 346.34580654567833" stroke="#323232" stroke-width="2" fill="none" marker-end="url(#SvgjsMarker1028)"></path></g><g id="SvgjsG1030"><path id="SvgjsPath1031" d="M117.50047294685828 110.59581793679138L214.4022602772323 110.59581793679138L214.4022602772323 155.6055302090122" stroke="#323232" stroke-width="2" fill="none" marker-end="url(#SvgjsMarker1032)"></path></g><g id="SvgjsG1034" transform="translate(154.0500030517578,245.79025777180993)"><path id="SvgjsPath1035" d="M 0 18Q 0 0 18 0L 102.620729367345 0Q 120.620729367345 0 120.620729367345 18L 120.620729367345 23.16667588551826Q 120.620729367345 41.16667588551826 102.620729367345 41.16667588551826L 18 41.16667588551826Q 0 41.16667588551826 0 23.16667588551826L 0 18Z" stroke="rgba(50,50,50,1)" stroke-width="2" fill-opacity="1" fill="#ffffff"></path><g id="SvgjsG1036"><text id="SvgjsText1037" font-family="&quot;Times New Roman&quot;" text-anchor="middle" font-size="17px" width="101px" fill="#323232" font-weight="400" align="middle" lineHeight="125%" anchor="middle" family="&quot;Times New Roman&quot;" size="17px" weight="400" font-style="" opacity="1" y="7.95833794275913" transform="rotate(0)"><tspan id="SvgjsTspan1038" dy="21" x="60.5"><tspan id="SvgjsTspan1039" style="text-decoration:;">pre-processing</tspan></tspan></text></g></g><g id="SvgjsG1040"><path id="SvgjsPath1041" d="M214.4022602772323 202.33887142605315L214.4022602772323 224.06456459893155L214.36036773543032 224.06456459893155L214.36036773543032 245.79025777180993" stroke="#323232" stroke-width="2" fill="none" marker-end="url(#SvgjsMarker1042)"></path></g><g id="SvgjsG1044"><path id="SvgjsPath1045" d="M154.46892846977784 178.97220081753267L71.25047294685828 178.97220081753267L71.25047294685828 126.8458179367914" stroke="#323232" stroke-width="2" fill="none" marker-end="url(#SvgjsMarker1046)"></path></g><g id="SvgjsG1048"><path id="SvgjsPath1049" d="M274.6707324191028 344.5584280890009L313.21471294651883 344.5584280890009L313.21471294651883 344.5707342528515L351.7586934739349 344.5707342528515" stroke="#323232" stroke-width="2" fill="none" marker-end="url(#SvgjsMarker1050)"></path></g><g id="SvgjsG1052" transform="translate(351.7586934739349,324.5707342528515)"><path id="SvgjsPath1053" d="M 0 20L 20 0L 40 20L 20 40L 0 20Z" stroke="rgba(50,50,50,1)" stroke-width="2" fill-opacity="1" fill="#ffffff"></path></g><g id="SvgjsG1054" transform="translate(391.2374375227853,325.9291512701243)"><path id="SvgjsPath1055" d="M 0 0L 160 0L 160 40L 0 40Z" stroke="none" fill="none"></path><g id="SvgjsG1056"><text id="SvgjsText1057" font-family="&quot;Times New Roman&quot;" text-anchor="middle" font-size="17px" width="160px" fill="#323232" font-weight="400" align="middle" lineHeight="125%" anchor="middle" family="&quot;Times New Roman&quot;" size="17px" weight="400" font-style="" opacity="1" y="7.375" transform="rotate(0)"><tspan id="SvgjsTspan1058" dy="21" x="80"><tspan id="SvgjsTspan1059" style="text-decoration:;">If finding a fan blade</tspan></tspan></text></g></g><g id="SvgjsG1060"><path id="SvgjsPath1061" d="M371.75869347393495 364.5707342528515L371.75869347393495 398.68051217181215L371.75869346533096 398.68051217181215L371.75869346533096 432.7902900907728" stroke="#323232" stroke-width="2" fill="none" marker-end="url(#SvgjsMarker1062)"></path><rect id="SvgjsRect1064" width="25" height="21" x="359.25869347393495" y="383.064045483968" fill="#ffffff"></rect><text id="SvgjsText1065" font-family="&quot;Times New Roman&quot;" text-anchor="middle" font-size="17px" width="25px" fill="#323232" font-weight="400" align="top" lineHeight="21px" anchor="middle" family="&quot;Times New Roman&quot;" size="17px" weight="400" font-style="" opacity="1" y="380.939045483968" transform="rotate(0)"><tspan id="SvgjsTspan1066" dy="21" x="371.75869347393495"><tspan id="SvgjsTspan1067" style="text-decoration:;">Yes</tspan></tspan></text></g><g id="SvgjsG1068" transform="translate(303.5238674473958,432.7902900907728)"><path id="SvgjsPath1069" d="M 0 18Q 0 0 18 0L 118.46965203587024 0Q 136.46965203587024 0 136.46965203587024 18L 136.46965203587024 25.377776145938128Q 136.46965203587024 43.37777614593813 118.46965203587024 43.37777614593813L 18 43.37777614593813Q 0 43.37777614593813 0 25.377776145938128L 0 18Z" stroke="rgba(50,50,50,1)" stroke-width="2" fill-opacity="1" fill="#ffffff"></path><g id="SvgjsG1070"><text id="SvgjsText1071" font-family="&quot;Times New Roman&quot;" text-anchor="middle" font-size="17px" width="117px" fill="#323232" font-weight="400" align="middle" lineHeight="125%" anchor="middle" family="&quot;Times New Roman&quot;" size="17px" weight="400" font-style="" opacity="1" y="-1.436111927030936" transform="rotate(0)"><tspan id="SvgjsTspan1072" dy="21" x="68.5"><tspan id="SvgjsTspan1073" style="text-decoration:;">match template </tspan></tspan><tspan id="SvgjsTspan1074" dy="21" x="68.5"><tspan id="SvgjsTspan1075" style="text-decoration:;">image</tspan></tspan></text></g></g><g id="SvgjsG1076"><path id="SvgjsPath1077" d="M371.7586934739349 324.5707342528515L371.7586934739349 210.61251068115234L334.4499969482422 210.61251068115234" stroke="#323232" stroke-width="2" fill="none" marker-end="url(#SvgjsMarker1078)"></path><rect id="SvgjsRect1080" width="21" height="21" x="361.25869355997406" y="245.81886174833738" fill="#ffffff"></rect><text id="SvgjsText1081" font-family="&quot;Times New Roman&quot;" text-anchor="middle" font-size="17px" width="21px" fill="#323232" font-weight="400" align="top" lineHeight="21px" anchor="middle" family="&quot;Times New Roman&quot;" size="17px" weight="400" font-style="" opacity="1" y="243.69386174833738" transform="rotate(0)"><tspan id="SvgjsTspan1082" dy="21" x="371.75869355997406"><tspan id="SvgjsTspan1083" style="text-decoration:;">No</tspan></tspan></text></g><g id="SvgjsG1084" transform="matrix(-1.8369701987210297e-16,-1,1,-1.8369701987210297e-16,316.4499816894531,247.61251831054688)"><path id="SvgjsPath1085" d="M 0 4Q 0 0 4 0L 116 0Q 120 0 120 4L 120 16Q 120 20 116 20L 4 20Q 0 20 0 16Z" stroke="none" fill-opacity="1" fill="#323232"></path></g><g id="SvgjsG1086"><path id="SvgjsPath1087" d="M322.272221883138 178.97220081753267L298.3039069839124 178.97220081753267L298.3039069839124 178.97220081753267L274.33559208468677 178.97220081753267" stroke="#323232" stroke-width="2" fill="none" marker-end="url(#SvgjsMarker1088)"></path></g><g id="SvgjsG1090" transform="translate(154.0500030517578,323.97509014624177)"><path id="SvgjsPath1091" d="M 0 18Q 0 0 18 0L 102.620729367345 0Q 120.620729367345 0 120.620729367345 18L 120.620729367345 23.16667588551826Q 120.620729367345 41.16667588551826 102.620729367345 41.16667588551826L 18 41.16667588551826Q 0 41.16667588551826 0 23.16667588551826L 0 18Z" stroke="rgba(50,50,50,1)" stroke-width="2" fill-opacity="1" fill="#ffffff"></path><g id="SvgjsG1092"><text id="SvgjsText1093" font-family="&quot;Times New Roman&quot;" text-anchor="middle" font-size="17px" width="101px" fill="#323232" font-weight="400" align="middle" lineHeight="125%" anchor="middle" family="&quot;Times New Roman&quot;" size="17px" weight="400" font-style="" opacity="1" y="7.95833794275913" transform="rotate(0)"><tspan id="SvgjsTspan1094" dy="21" x="60.5"><tspan id="SvgjsTspan1095" style="text-decoration:;">find fan blade</tspan></tspan></text></g></g><g id="SvgjsG1096"><path id="SvgjsPath1097" d="M214.36036773543032 286.9569336573282L214.36036773543032 305.466011901785L214.36036773543032 305.466011901785L214.36036773543032 323.97509014624177" stroke="#323232" stroke-width="2" fill="none" marker-end="url(#SvgjsMarker1098)"></path></g><g id="SvgjsG1100" transform="translate(466.52647904732135,512.180892643641)"><path id="SvgjsPath1101" d="M 0 18Q 0 0 18 0L 102.620729367345 0Q 120.620729367345 0 120.620729367345 18L 120.620729367345 23.16667588551826Q 120.620729367345 41.16667588551826 102.620729367345 41.16667588551826L 18 41.16667588551826Q 0 41.16667588551826 0 23.16667588551826L 0 18Z" stroke="rgba(50,50,50,1)" stroke-width="2" fill-opacity="1" fill="#ffffff"></path><g id="SvgjsG1102"><text id="SvgjsText1103" font-family="&quot;Times New Roman&quot;" text-anchor="middle" font-size="17px" width="101px" fill="#323232" font-weight="400" align="middle" lineHeight="125%" anchor="middle" family="&quot;Times New Roman&quot;" size="17px" weight="400" font-style="" opacity="1" y="7.95833794275913" transform="rotate(0)"><tspan id="SvgjsTspan1104" dy="21" x="60.5"><tspan id="SvgjsTspan1105" style="text-decoration:;">find the armor</tspan></tspan></text></g></g><g id="SvgjsG1106"><path id="SvgjsPath1107" d="M371.7586934653309 476.16806623671124L371.7586934653309 494.1420719467287L371.7586934653309 494.1420719467287L371.7586934653309 512.1160776567461" stroke="#323232" stroke-width="2" fill="none" marker-end="url(#SvgjsMarker1108)"></path></g><g id="SvgjsG1110" transform="translate(351.7586934653309,512.1160776567461)"><path id="SvgjsPath1111" d="M 0 20L 20 0L 40 20L 20 40L 0 20Z" stroke="rgba(50,50,50,1)" stroke-width="2" fill-opacity="1" fill="#ffffff"></path></g><g id="SvgjsG1112"><path id="SvgjsPath1113" d="M391.7586934653309 532.1160776567461L429.1425862563261 532.1160776567461L429.1425862563261 532.7642305864001L466.52647904732135 532.7642305864001" stroke="#323232" stroke-width="2" fill="none" marker-end="url(#SvgjsMarker1114)"></path><rect id="SvgjsRect1116" width="25" height="21" x="408.40772416968844" y="521.6160776567461" fill="#ffffff"></rect><text id="SvgjsText1117" font-family="&quot;Times New Roman&quot;" text-anchor="middle" font-size="17px" width="25px" fill="#323232" font-weight="400" align="top" lineHeight="21px" anchor="middle" family="&quot;Times New Roman&quot;" size="17px" weight="400" font-style="" opacity="1" y="519.4910776567461" transform="rotate(0)"><tspan id="SvgjsTspan1118" dy="21" x="420.90772416968844"><tspan id="SvgjsTspan1119" style="text-decoration:;">Yes</tspan></tspan></text></g><g id="SvgjsG1120"><path id="SvgjsPath1121" d="M351.7586934653309 532.1160776567461L214.36036773543032 532.1160776567461L214.36036773543032 365.14176603176" stroke="#323232" stroke-width="2" fill="none" marker-end="url(#SvgjsMarker1122)"></path><rect id="SvgjsRect1124" width="21" height="21" x="203.86036773543032" y="414.19388621161625" fill="#ffffff"></rect><text id="SvgjsText1125" font-family="&quot;Times New Roman&quot;" text-anchor="middle" font-size="17px" width="21px" fill="#323232" font-weight="400" align="top" lineHeight="21px" anchor="middle" family="&quot;Times New Roman&quot;" size="17px" weight="400" font-style="" opacity="1" y="412.06888621161625" transform="rotate(0)"><tspan id="SvgjsTspan1126" dy="21" x="214.36036773543032"><tspan id="SvgjsTspan1127" style="text-decoration:;">No</tspan></tspan></text></g><g id="SvgjsG1128" transform="translate(294.1680273681725,562.2423511728423)"><path id="SvgjsPath1129" d="M 0 0L 160 0L 160 40L 0 40Z" stroke="none" fill="none"></path><g id="SvgjsG1130"><text id="SvgjsText1131" font-family="&quot;Times New Roman&quot;" text-anchor="middle" font-size="17px" width="160px" fill="#323232" font-weight="400" align="middle" lineHeight="125%" anchor="middle" family="&quot;Times New Roman&quot;" size="17px" weight="400" font-style="" opacity="1" y="-3.125" transform="rotate(0)"><tspan id="SvgjsTspan1132" dy="21" x="80"><tspan id="SvgjsTspan1133" style="text-decoration:;">Is the current the </tspan></tspan><tspan id="SvgjsTspan1134" dy="21" x="80"><tspan id="SvgjsTspan1135" style="text-decoration:;">target?</tspan></tspan></text></g></g><g id="SvgjsG1136"><path id="SvgjsPath1137" d="M587.1472084146664 532.7642305864001L615.0802482305373 532.7642305864001L615.0802482305373 533.0144374334249L643.0132880464084 533.0144374334249" stroke="#323232" stroke-width="2" fill="none" marker-end="url(#SvgjsMarker1138)"></path></g><g id="SvgjsG1140" transform="translate(643.0132880464084,493.43578102722654)"><path id="SvgjsPath1141" d="M 0 18Q 0 0 18 0L 131.07907616915043 0Q 149.07907616915043 0 149.07907616915043 18L 149.07907616915043 61.15731281239687Q 149.07907616915043 79.15731281239687 131.07907616915043 79.15731281239687L 18 79.15731281239687Q 0 79.15731281239687 0 61.15731281239687L 0 18Z" stroke="rgba(50,50,50,1)" stroke-width="2" fill-opacity="1" fill="#ffffff"></path><g id="SvgjsG1142"><text id="SvgjsText1143" font-family="&quot;Times New Roman&quot;" text-anchor="middle" font-size="17px" width="130px" fill="#323232" font-weight="400" align="middle" lineHeight="125%" anchor="middle" family="&quot;Times New Roman&quot;" size="17px" weight="400" font-style="" opacity="1" y="16.453656406198434" transform="rotate(0)"><tspan id="SvgjsTspan1144" dy="21" x="75"><tspan id="SvgjsTspan1145" style="text-decoration:;">find armor's center </tspan></tspan><tspan id="SvgjsTspan1146" dy="21" x="75"><tspan id="SvgjsTspan1147" style="text-decoration:;">and rune's center</tspan></tspan></text></g></g><g id="SvgjsG1148"><path id="SvgjsPath1149" d="M792.0923642155589 533.014437433425L812.1822930493486 533.014437433425L812.1822930493486 532.6637937068045L832.2722218831383 532.6637937068045" stroke="#323232" stroke-width="2" fill="none" marker-end="url(#SvgjsMarker1150)"></path></g><g id="SvgjsG1152" transform="translate(832.2722218831383,497.66379370680465)"><path id="SvgjsPath1153" d="M 0 18Q 0 0 18 0L 91.99999999999966 0Q 109.99999999999966 0 109.99999999999966 18L 109.99999999999966 52Q 109.99999999999966 70 91.99999999999966 70L 18 70Q 0 70 0 52L 0 18Z" stroke="rgba(50,50,50,1)" stroke-width="2" fill-opacity="1" fill="#ffffff"></path><g id="SvgjsG1154"><text id="SvgjsText1155" font-family="&quot;Times New Roman&quot;" text-anchor="middle" font-size="17px" width="90px" fill="#323232" font-weight="400" align="middle" lineHeight="125%" anchor="middle" family="&quot;Times New Roman&quot;" size="17px" weight="400" font-style="" opacity="1" y="1.875" transform="rotate(0)"><tspan id="SvgjsTspan1156" dy="21" x="55"><tspan id="SvgjsTspan1157" style="text-decoration:;">fit the circle </tspan></tspan><tspan id="SvgjsTspan1158" dy="21" x="55"><tspan id="SvgjsTspan1159" style="text-decoration:;">and calculate </tspan></tspan><tspan id="SvgjsTspan1160" dy="21" x="55"><tspan id="SvgjsTspan1161" style="text-decoration:;">the speed</tspan></tspan></text></g></g><g id="SvgjsG1162"><path id="SvgjsPath1163" d="M942.2722218831377 532.6637937068045L965.0499996609158 532.6637937068045L965.0499996609158 532.6637937068047L987.8277774386938 532.6637937068047" stroke="#323232" stroke-width="2" fill="none" marker-end="url(#SvgjsMarker1164)"></path></g><g id="SvgjsG1166" transform="translate(987.8277774386938,497.66379370680465)"><path id="SvgjsPath1167" d="M 0 18Q 0 0 18 0L 82 0Q 100 0 100 18L 100 52Q 100 70 82 70L 18 70Q 0 70 0 52L 0 18Z" stroke="rgba(50,50,50,1)" stroke-width="2" fill-opacity="1" fill="#ffffff"></path><g id="SvgjsG1168"><text id="SvgjsText1169" font-family="&quot;Times New Roman&quot;" text-anchor="middle" font-size="17px" width="80px" fill="#323232" font-weight="400" align="middle" lineHeight="125%" anchor="middle" family="&quot;Times New Roman&quot;" size="17px" weight="400" font-style="" opacity="1" y="1.875" transform="rotate(0)"><tspan id="SvgjsTspan1170" dy="21" x="50"><tspan id="SvgjsTspan1171" style="text-decoration:;">predict the </tspan></tspan><tspan id="SvgjsTspan1172" dy="21" x="50"><tspan id="SvgjsTspan1173" style="text-decoration:;">position of </tspan></tspan><tspan id="SvgjsTspan1174" dy="21" x="50"><tspan id="SvgjsTspan1175" style="text-decoration:;">the armor</tspan></tspan></text></g></g><g id="SvgjsG1176"><path id="SvgjsPath1177" d="M780.6347521077598 307.19133519292086L780.6347521077598 153.90139431423611L335.6055552164713 153.90139431423611" stroke="#323232" stroke-width="2" fill="none" marker-end="url(#SvgjsMarker1178)"></path></g><g id="SvgjsG1180" transform="translate(51.25047294685828,25.01250542534723)"><path id="SvgjsPath1181" d="M 0 20C 0 -6.666666666666667 40 -6.666666666666667 40 20C 40 46.666666666666664 0 46.666666666666664 0 20Z" stroke="none" fill-opacity="1" fill="#323232"></path><g id="SvgjsG1182"><text id="SvgjsText1183" font-family="微软雅黑" text-anchor="middle" font-size="13px" width="80px" fill="#323232" font-weight="400" align="middle" lineHeight="125%" anchor="middle" family="微软雅黑" size="13px" weight="400" font-style="" opacity="1" y="45.375" transform="rotate(0)"></text></g></g><g id="SvgjsG1184"><path id="SvgjsPath1185" d="M71.25047294685828 65.01250542534723L71.25047294685828 79.67916168106929L71.25047294685828 79.67916168106929L71.25047294685828 94.34581793679135" stroke="#323232" stroke-width="2" fill="none" marker-end="url(#SvgjsMarker1186)"></path></g></svg>