<svg id="SvgjsSvg1434" width="1086.2124938964844" height="590.6375122070312" xmlns="http://www.w3.org/2000/svg" version="1.1" xmlns:xlink="http://www.w3.org/1999/xlink" xmlns:svgjs="http://svgjs.com/svgjs"><defs id="SvgjsDefs1435"><marker id="SvgjsMarker1450" markerWidth="16" markerHeight="12" refX="16" refY="6" viewBox="0 0 16 12" orient="auto" markerUnits="userSpaceOnUse" stroke-dasharray="0,0"><path id="SvgjsPath1451" d="M0,2 L14,6 L0,11 L0,2" fill="#323232" stroke="#323232" stroke-width="2"></path></marker><marker id="SvgjsMarker1456" markerWidth="16" markerHeight="12" refX="16" refY="6" viewBox="0 0 16 12" orient="auto" markerUnits="userSpaceOnUse" stroke-dasharray="0,0"><path id="SvgjsPath1457" d="M0,2 L14,6 L0,11 L0,2" fill="#323232" stroke="#323232" stroke-width="2"></path></marker><marker id="SvgjsMarker1466" markerWidth="16" markerHeight="12" refX="16" refY="6" viewBox="0 0 16 12" orient="auto" markerUnits="userSpaceOnUse" stroke-dasharray="0,0"><path id="SvgjsPath1467" d="M0,2 L14,6 L0,11 L0,2" fill="#323232" stroke="#323232" stroke-width="2"></path></marker><marker id="SvgjsMarker1474" markerWidth="16" markerHeight="12" refX="16" refY="6" viewBox="0 0 16 12" orient="auto" markerUnits="userSpaceOnUse" stroke-dasharray="0,0"><path id="SvgjsPath1475" d="M0,2 L14,6 L0,11 L0,2" fill="#323232" stroke="#323232" stroke-width="2"></path></marker><marker id="SvgjsMarker1500" markerWidth="16" markerHeight="12" refX="16" refY="6" viewBox="0 0 16 12" orient="auto" markerUnits="userSpaceOnUse" stroke-dasharray="0,0"><path id="SvgjsPath1501" d="M0,2 L14,6 L0,11 L0,2" fill="#323232" stroke="#323232" stroke-width="2"></path></marker><marker id="SvgjsMarker1508" markerWidth="16" markerHeight="12" refX="16" refY="6" viewBox="0 0 16 12" orient="auto" markerUnits="userSpaceOnUse" stroke-dasharray="0,0"><path id="SvgjsPath1509" d="M0,2 L14,6 L0,11 L0,2" fill="#323232" stroke="#323232" stroke-width="2"></path></marker><marker id="SvgjsMarker1516" markerWidth="16" markerHeight="12" refX="16" refY="6" viewBox="0 0 16 12" orient="auto" markerUnits="userSpaceOnUse" stroke-dasharray="0,0"><path id="SvgjsPath1517" d="M0,2 L14,6 L0,11 L0,2" fill="#323232" stroke="#323232" stroke-width="2"></path></marker><marker id="SvgjsMarker1522" markerWidth="16" markerHeight="12" refX="16" refY="6" viewBox="0 0 16 12" orient="auto" markerUnits="userSpaceOnUse" stroke-dasharray="0,0"><path id="SvgjsPath1523" d="M0,2 L14,6 L0,11 L0,2" fill="#323232" stroke="#323232" stroke-width="2"></path></marker><marker id="SvgjsMarker1538" markerWidth="16" markerHeight="12" refX="16" refY="6" viewBox="0 0 16 12" orient="auto" markerUnits="userSpaceOnUse" stroke-dasharray="0,0"><path id="SvgjsPath1539" d="M0,2 L14,6 L0,11 L0,2" fill="#323232" stroke="#323232" stroke-width="2"></path></marker><marker id="SvgjsMarker1582" markerWidth="16" markerHeight="12" refX="16" refY="6" viewBox="0 0 16 12" orient="auto" markerUnits="userSpaceOnUse" stroke-dasharray="0,0"><path id="SvgjsPath1583" d="M0,2 L14,6 L0,11 L0,2" fill="#323232" stroke="#323232" stroke-width="2"></path></marker><marker id="SvgjsMarker1594" markerWidth="16" markerHeight="12" refX="16" refY="6" viewBox="0 0 16 12" orient="auto" markerUnits="userSpaceOnUse" stroke-dasharray="0,0"><path id="SvgjsPath1595" d="M0,2 L14,6 L0,11 L0,2" fill="#323232" stroke="#323232" stroke-width="2"></path></marker><marker id="SvgjsMarker1598" markerWidth="16" markerHeight="12" refX="16" refY="6" viewBox="0 0 16 12" orient="auto" markerUnits="userSpaceOnUse" stroke-dasharray="0,0"><path id="SvgjsPath1599" d="M0,2 L14,6 L0,11 L0,2" fill="#323232" stroke="#323232" stroke-width="2"></path></marker><marker id="SvgjsMarker1602" markerWidth="16" markerHeight="12" refX="16" refY="6" viewBox="0 0 16 12" orient="auto" markerUnits="userSpaceOnUse" stroke-dasharray="0,0"><path id="SvgjsPath1603" d="M0,2 L14,6 L0,11 L0,2" fill="#323232" stroke="#323232" stroke-width="2"></path></marker><marker id="SvgjsMarker1608" markerWidth="16" markerHeight="12" refX="16" refY="6" viewBox="0 0 16 12" orient="auto" markerUnits="userSpaceOnUse" stroke-dasharray="0,0"><path id="SvgjsPath1609" d="M0,2 L14,6 L0,11 L0,2" fill="#323232" stroke="#323232" stroke-width="2"></path></marker><marker id="SvgjsMarker1626" markerWidth="16" markerHeight="12" refX="16" refY="6" viewBox="0 0 16 12" orient="auto" markerUnits="userSpaceOnUse" stroke-dasharray="0,0"><path id="SvgjsPath1627" d="M0,2 L14,6 L0,11 L0,2" fill="#323232" stroke="#323232" stroke-width="2"></path></marker><marker id="SvgjsMarker1634" markerWidth="16" markerHeight="12" refX="16" refY="6" viewBox="0 0 16 12" orient="auto" markerUnits="userSpaceOnUse" stroke-dasharray="0,0"><path id="SvgjsPath1635" d="M0,2 L14,6 L0,11 L0,2" fill="#323232" stroke="#323232" stroke-width="2"></path></marker><marker id="SvgjsMarker1642" markerWidth="16" markerHeight="12" refX="16" refY="6" viewBox="0 0 16 12" orient="auto" markerUnits="userSpaceOnUse" stroke-dasharray="0,0"><path id="SvgjsPath1643" d="M0,2 L14,6 L0,11 L0,2" fill="#323232" stroke="#323232" stroke-width="2"></path></marker><marker id="SvgjsMarker1646" markerWidth="16" markerHeight="12" refX="16" refY="6" viewBox="0 0 16 12" orient="auto" markerUnits="userSpaceOnUse" stroke-dasharray="0,0"><path id="SvgjsPath1647" d="M0,2 L14,6 L0,11 L0,2" fill="#323232" stroke="#323232" stroke-width="2"></path></marker></defs><g id="SvgjsG1436" transform="translate(440.9374694824219,25.012496948242188)"><path id="SvgjsPath1437" d="M 0 17.700000762939453C 0 -5.900000254313151 33 -5.900000254313151 33 17.700000762939453C 33 41.300001780192055 0 41.300001780192055 0 17.700000762939453Z" stroke="none" fill-opacity="1" fill="#323232"></path><g id="SvgjsG1438"><text id="SvgjsText1439" font-family="&quot;Times New Roman&quot;" text-anchor="middle" font-size="15px" width="73px" fill="#323232" font-weight="400" align="middle" lineHeight="125%" anchor="middle" family="&quot;Times New Roman&quot;" size="15px" weight="400" font-style="" opacity="1" y="39.525001525878906" transform="rotate(0)"></text></g></g><g id="SvgjsG1440" transform="translate(393.4374694824219,87.4124984741211)"><path id="SvgjsPath1441" d="M 0 18Q 0 0 18 0L 110 0Q 128 0 128 18L 128 33.90000025431311Q 128 51.90000025431311 110 51.90000025431311L 18 51.90000025431311Q 0 51.90000025431311 0 33.90000025431311L 0 18Z" stroke="rgba(50,50,50,1)" stroke-width="2" fill-opacity="1" fill="#ffffff"></path><g id="SvgjsG1442"><text id="SvgjsText1443" font-family="&quot;Times New Roman&quot;" text-anchor="middle" font-size="17px" width="108px" fill="#323232" font-weight="400" align="middle" lineHeight="125%" anchor="middle" family="&quot;Times New Roman&quot;" size="17px" weight="400" font-style="" opacity="1" y="2.8250001271565566" transform="rotate(0)"><tspan id="SvgjsTspan1444" dy="21" x="64"><tspan id="SvgjsTspan1445" style="text-decoration:;">check serial </tspan></tspan><tspan id="SvgjsTspan1446" dy="21" x="64"><tspan id="SvgjsTspan1447" style="text-decoration:;">ports</tspan></tspan></text></g></g><g id="SvgjsG1448"><path id="SvgjsPath1449" d="M457.4374694824219 60.412498474121094L457.4374694824219 73.9124984741211L457.4374694824219 73.9124984741211L457.4374694824219 87.4124984741211" stroke="#323232" stroke-width="2" fill="none" marker-end="url(#SvgjsMarker1450)"></path></g><g id="SvgjsG1452" transform="translate(437.4374694824219,192.4124984741211)"><path id="SvgjsPath1453" d="M 0 20L 20 0L 40 20L 20 40L 0 20Z" stroke="rgba(50,50,50,1)" stroke-width="2" fill-opacity="1" fill="#ffffff"></path></g><g id="SvgjsG1454"><path id="SvgjsPath1455" d="M457.4374694824219 139.3124987284342L457.4374694824219 165.86249860127765L457.4374694824219 165.86249860127765L457.4374694824219 192.4124984741211" stroke="#323232" stroke-width="2" fill="none" marker-end="url(#SvgjsMarker1456)"></path></g><g id="SvgjsG1458" transform="translate(335.4374694824219,182.4124984741211)"><path id="SvgjsPath1459" d="M 0 0L 120 0L 120 40L 0 40Z" stroke="none" fill="none"></path><g id="SvgjsG1460"><text id="SvgjsText1461" font-family="&quot;Times New Roman&quot;" text-anchor="middle" font-size="17px" width="120px" fill="#323232" font-weight="400" align="middle" lineHeight="125%" anchor="middle" family="&quot;Times New Roman&quot;" size="17px" weight="400" font-style="" opacity="1" y="7.375" transform="rotate(0)"><tspan id="SvgjsTspan1462" dy="21" x="60"><tspan id="SvgjsTspan1463" style="text-decoration:;">Is it online?</tspan></tspan></text></g></g><g id="SvgjsG1464"><path id="SvgjsPath1465" d="M457.4374694824219 232.4124984741211L457.4374694824219 259.71249771118164L457.4374694824219 259.71249771118164L457.4374694824219 287.0124969482422" stroke="#323232" stroke-width="2" fill="none" marker-end="url(#SvgjsMarker1466)"></path><rect id="SvgjsRect1468" width="25" height="21" x="444.3374786376953" y="244.3125" fill="#ffffff"></rect><text id="SvgjsText1469" font-family="&quot;Times New Roman&quot;" text-anchor="middle" font-size="17px" width="25px" fill="#323232" font-weight="400" align="top" lineHeight="21px" anchor="middle" family="&quot;Times New Roman&quot;" size="17px" weight="400" font-style="" opacity="1" y="242.1875" transform="rotate(0)"><tspan id="SvgjsTspan1470" dy="21" x="456.8374786376953"><tspan id="SvgjsTspan1471" style="text-decoration:;">Yes</tspan></tspan></text></g><g id="SvgjsG1472"><path id="SvgjsPath1473" d="M477.4374694824219 212.4124984741211L551.4374694824219 212.4124984741211L551.4374694824219 113.36249860127765L521.4374694824219 113.36249860127765" stroke="#323232" stroke-width="2" fill="none" marker-end="url(#SvgjsMarker1474)"></path><rect id="SvgjsRect1476" width="21" height="21" x="540.9374694824219" y="152.38749853769934" fill="#ffffff"></rect><text id="SvgjsText1477" font-family="&quot;Times New Roman&quot;" text-anchor="middle" font-size="17px" width="21px" fill="#323232" font-weight="400" align="top" lineHeight="21px" anchor="middle" family="&quot;Times New Roman&quot;" size="17px" weight="400" font-style="" opacity="1" y="150.26249853769934" transform="rotate(0)"><tspan id="SvgjsTspan1478" dy="21" x="551.4374694824219"><tspan id="SvgjsTspan1479" style="text-decoration:;">No</tspan></tspan></text></g><g id="SvgjsG1480" transform="translate(397.5041376749674,293.41249084472656)"><path id="SvgjsPath1481" d="M 0 18Q 0 0 18 0L 101.86666361490893 0Q 119.86666361490893 0 119.86666361490893 18L 119.86666361490893 28.73334121704096Q 119.86666361490893 46.73334121704096 101.86666361490893 46.73334121704096L 18 46.73334121704096Q 0 46.73334121704096 0 28.73334121704096L 0 18Z" stroke="rgba(50,50,50,1)" stroke-width="2" fill-opacity="1" fill="#ffffff"></path><g id="SvgjsG1482"><text id="SvgjsText1483" font-family="&quot;Times New Roman&quot;" text-anchor="middle" font-size="17px" width="100px" fill="#323232" font-weight="700" align="middle" lineHeight="125%" anchor="middle" family="&quot;Times New Roman&quot;" size="17px" weight="700" font-style="" opacity="1" y="10.74167060852048" transform="rotate(0)"><tspan id="SvgjsTspan1484" dy="21" x="60"><tspan id="SvgjsTspan1485" style="text-decoration:;">Fire Control</tspan></tspan></text></g></g><g id="SvgjsG1486" transform="translate(40.004137674967524,65.91249847412104)"><path id="SvgjsPath1487" d="M 0 0L 92.49999999999999 0L 92.49999999999999 32.50000000000006L 0 32.50000000000006Z" stroke="rgba(50,50,50,1)" stroke-width="2" fill-opacity="1" fill="#ffffff"></path><g id="SvgjsG1488"><text id="SvgjsText1489" font-family="&quot;Times New Roman&quot;" text-anchor="middle" font-size="17px" width="73px" fill="#323232" font-weight="400" align="middle" lineHeight="125%" anchor="middle" family="&quot;Times New Roman&quot;" size="17px" weight="400" font-style="" opacity="1" y="3.6250000000000284" transform="rotate(0)"><tspan id="SvgjsTspan1490" dy="21" x="46.5"><tspan id="SvgjsTspan1491" style="text-decoration:;">camera</tspan></tspan></text></g></g><g id="SvgjsG1492" transform="translate(25.004137674967552,220.29443656073747)"><path id="SvgjsPath1493" d="M 0 18Q 0 0 18 0L 104.49999999999997 0Q 122.49999999999997 0 122.49999999999997 18L 122.49999999999997 18.066666920979742Q 122.49999999999997 36.06666692097974 104.49999999999997 36.06666692097974L 18 36.06666692097974Q 0 36.06666692097974 0 18.066666920979742L 0 18Z" stroke="rgba(50,50,50,1)" stroke-width="2" fill-opacity="1" fill="#ffffff"></path><g id="SvgjsG1494"><text id="SvgjsText1495" font-family="&quot;Times New Roman&quot;" text-anchor="middle" font-size="17px" width="103px" fill="#323232" font-weight="400" align="middle" lineHeight="125%" anchor="middle" family="&quot;Times New Roman&quot;" size="17px" weight="400" font-style="" opacity="1" y="5.408333460489871" transform="rotate(0)"><tspan id="SvgjsTspan1496" dy="21" x="61.5"><tspan id="SvgjsTspan1497" style="text-decoration:;">image encode</tspan></tspan></text></g></g><g id="SvgjsG1498"><path id="SvgjsPath1499" d="M397.5041376749674 316.77916145324707L272.50413767496747 316.77916145324707L272.50413767496747 238.32777002122737L147.50413767496752 238.32777002122737" stroke="#323232" stroke-width="2" fill="none" marker-end="url(#SvgjsMarker1500)"></path><rect id="SvgjsRect1502" width="95" height="21" x="225.00413767496747" y="267.0534657372372" fill="#ffffff"></rect><text id="SvgjsText1503" font-family="&quot;Times New Roman&quot;" text-anchor="middle" font-size="17px" width="95px" fill="#323232" font-weight="400" align="top" lineHeight="21px" anchor="middle" family="&quot;Times New Roman&quot;" size="17px" weight="400" font-style="" opacity="1" y="264.9284657372372" transform="rotate(0)"><tspan id="SvgjsTspan1504" dy="21" x="272.50413767496747"><tspan id="SvgjsTspan1505" style="text-decoration:;">request image</tspan></tspan></text></g><g id="SvgjsG1506"><path id="SvgjsPath1507" d="M86.25413767496752 256.36110348171724L86.25413767496752 369.8124974568684L423.67081197102857 369.8124974568684L423.67081197102857 339.8124974568684" stroke="#323232" stroke-width="2" fill="none" marker-end="url(#SvgjsMarker1508)"></path><rect id="SvgjsRect1510" width="98" height="21" x="155.34997367858887" y="344.3124974568684" fill="#ffffff"></rect><text id="SvgjsText1511" font-family="&quot;Times New Roman&quot;" text-anchor="middle" font-size="17px" width="98px" fill="#323232" font-weight="400" align="top" lineHeight="21px" anchor="middle" family="&quot;Times New Roman&quot;" size="17px" weight="400" font-style="" opacity="1" y="342.1874974568684" transform="rotate(0)"><tspan id="SvgjsTspan1512" dy="21" x="204.34997367858887"><tspan id="SvgjsTspan1513" style="text-decoration:;">image (byte[])</tspan></tspan></text></g><g id="SvgjsG1514"><path id="SvgjsPath1515" d="M517.3708012898763 316.77916145324707L560.1041399637857 316.77916145324707L560.1041399637857 316.77916145324707L602.8374786376949 316.77916145324707" stroke="#323232" stroke-width="2" fill="none" marker-end="url(#SvgjsMarker1516)"></path></g><g id="SvgjsG1518" transform="translate(602.8374786376949,296.77916145324707)"><path id="SvgjsPath1519" d="M 0 20L 20 0L 40 20L 20 40L 0 20Z" stroke="rgba(50,50,50,1)" stroke-width="2" fill-opacity="1" fill="#ffffff"></path></g><g id="SvgjsG1520"><path id="SvgjsPath1521" d="M622.8374786376949 296.77916145324707L622.8374786376949 137.28471665912207L701.5593874976589 137.28471665912207" stroke="#323232" stroke-width="2" fill="none" marker-end="url(#SvgjsMarker1522)"></path><rect id="SvgjsRect1524" width="58" height="42" x="593.8374786376949" y="188.05721681647833" fill="#ffffff"></rect><text id="SvgjsText1525" font-family="&quot;Times New Roman&quot;" text-anchor="middle" font-size="17px" width="58px" fill="#323232" font-weight="400" align="top" lineHeight="21px" anchor="middle" family="&quot;Times New Roman&quot;" size="17px" weight="400" font-style="" opacity="1" y="185.93221681647833" transform="rotate(0)"><tspan id="SvgjsTspan1526" dy="21" x="622.8374786376949"><tspan id="SvgjsTspan1527" style="text-decoration:;">Armor</tspan></tspan><tspan id="SvgjsTspan1528" dy="21" x="622.8374786376949"><tspan id="SvgjsTspan1529" style="text-decoration:;">Detector</tspan></tspan></text></g><g id="SvgjsG1530" transform="translate(606.3097008599173,297.61249478658016)"><path id="SvgjsPath1531" d="M 0 0L 160 0L 160 40L 0 40Z" stroke="none" fill="none"></path><g id="SvgjsG1532"><text id="SvgjsText1533" font-family="&quot;Times New Roman&quot;" text-anchor="middle" font-size="17px" width="160px" fill="#323232" font-weight="400" align="middle" lineHeight="125%" anchor="middle" family="&quot;Times New Roman&quot;" size="17px" weight="400" font-style="" opacity="1" y="7.375" transform="rotate(0)"><tspan id="SvgjsTspan1534" dy="21" x="80"><tspan id="SvgjsTspan1535" style="text-decoration:;">check mode</tspan></tspan></text></g></g><g id="SvgjsG1536"><path id="SvgjsPath1537" d="M622.8374786376949 336.77916145324707L622.8374786376949 455.0624944368998L701.1132802731358 455.0624944368998" stroke="#323232" stroke-width="2" fill="none" marker-end="url(#SvgjsMarker1538)"></path><rect id="SvgjsRect1540" width="58" height="42" x="593.5117840274162" y="369.0066612958908" fill="#ffffff"></rect><text id="SvgjsText1541" font-family="&quot;Times New Roman&quot;" text-anchor="middle" font-size="17px" width="58px" fill="#323232" font-weight="400" align="top" lineHeight="21px" anchor="middle" family="&quot;Times New Roman&quot;" size="17px" weight="400" font-style="" opacity="1" y="366.8816612958908" transform="rotate(0)"><tspan id="SvgjsTspan1542" dy="21" x="622.5117840274162"><tspan id="SvgjsTspan1543" style="text-decoration:;">Rune</tspan></tspan><tspan id="SvgjsTspan1544" dy="21" x="622.5117840274162"><tspan id="SvgjsTspan1545" style="text-decoration:;">Detector</tspan></tspan></text></g><g id="SvgjsG1546" transform="translate(701.5593874976589,115.59026760525174)"><path id="SvgjsPath1547" d="M 0 18Q 0 0 18 0L 94.14222408129763 0Q 112.14222408129763 0 112.14222408129763 18L 112.14222408129763 25.38889810774063Q 112.14222408129763 43.38889810774063 94.14222408129763 43.38889810774063L 18 43.38889810774063Q 0 43.38889810774063 0 25.38889810774063L 0 18Z" stroke="rgba(50,50,50,1)" stroke-width="2" fill-opacity="1" fill="#ffffff"></path><g id="SvgjsG1548"><text id="SvgjsText1549" font-family="&quot;Times New Roman&quot;" text-anchor="middle" font-size="17px" width="93px" fill="#323232" font-weight="400" align="middle" lineHeight="125%" anchor="middle" family="&quot;Times New Roman&quot;" size="17px" weight="400" font-style="" opacity="1" y="-1.430550946129685" transform="rotate(0)"><tspan id="SvgjsTspan1550" dy="21" x="56.5"><tspan id="SvgjsTspan1551" style="text-decoration:;">image </tspan></tspan><tspan id="SvgjsTspan1552" dy="21" x="56.5"><tspan id="SvgjsTspan1553" style="text-decoration:;">decode</tspan></tspan></text></g></g><g id="SvgjsG1554" transform="translate(705.5439792817443,195.73499487129914)"><path id="SvgjsPath1555" d="M 0 18Q 0 0 18 0L 86.17304051312681 0Q 104.17304051312681 0 104.17304051312681 18L 104.17304051312681 24.243896094532772Q 104.17304051312681 42.24389609453277 86.17304051312681 42.24389609453277L 18 42.24389609453277Q 0 42.24389609453277 0 24.243896094532772L 0 18Z" stroke="rgba(50,50,50,1)" stroke-width="2" fill-opacity="1" fill="#ffffff"></path><g id="SvgjsG1556"><text id="SvgjsText1557" font-family="&quot;Times New Roman&quot;" text-anchor="middle" font-size="17px" width="85px" fill="#323232" font-weight="400" align="middle" lineHeight="125%" anchor="middle" family="&quot;Times New Roman&quot;" size="17px" weight="400" font-style="" opacity="1" y="-2.003051952733614" transform="rotate(0)"><tspan id="SvgjsTspan1558" dy="21" x="52.5"><tspan id="SvgjsTspan1559" style="text-decoration:;">nanodet </tspan></tspan><tspan id="SvgjsTspan1560" dy="21" x="52.5"><tspan id="SvgjsTspan1561" style="text-decoration:;">model</tspan></tspan></text></g></g><g id="SvgjsG1562" transform="translate(840.4186766624495,245.5902676052517)"><path id="SvgjsPath1563" d="M 0 18Q 0 0 18 0L 95.32836923571972 0Q 113.32836923571972 0 113.32836923571972 18L 113.32836923571972 18.5238661859878Q 113.32836923571972 36.5238661859878 95.32836923571972 36.5238661859878L 18 36.5238661859878Q 0 36.5238661859878 0 18.5238661859878L 0 18Z" stroke="rgba(50,50,50,1)" stroke-width="2" fill-opacity="1" fill="#ffffff"></path><g id="SvgjsG1564"><text id="SvgjsText1565" font-family="&quot;Times New Roman&quot;" text-anchor="middle" font-size="17px" width="94px" fill="#323232" font-weight="400" align="middle" lineHeight="125%" anchor="middle" family="&quot;Times New Roman&quot;" size="17px" weight="400" font-style="" opacity="1" y="5.6369330929939" transform="rotate(0)"><tspan id="SvgjsTspan1566" dy="21" x="57"><tspan id="SvgjsTspan1567" style="text-decoration:;">result encode</tspan></tspan></text></g></g><g id="SvgjsG1568" transform="translate(701.1132802731358,434.4791564941406)"><path id="SvgjsPath1569" d="M 0 18Q 0 0 18 0L 102.620729367345 0Q 120.620729367345 0 120.620729367345 18L 120.620729367345 23.16667588551826Q 120.620729367345 41.16667588551826 102.620729367345 41.16667588551826L 18 41.16667588551826Q 0 41.16667588551826 0 23.16667588551826L 0 18Z" stroke="rgba(50,50,50,1)" stroke-width="2" fill-opacity="1" fill="#ffffff"></path><g id="SvgjsG1570"><text id="SvgjsText1571" font-family="&quot;Times New Roman&quot;" text-anchor="middle" font-size="17px" width="101px" fill="#323232" font-weight="400" align="middle" lineHeight="125%" anchor="middle" family="&quot;Times New Roman&quot;" size="17px" weight="400" font-style="" opacity="1" y="7.95833794275913" transform="rotate(0)"><tspan id="SvgjsTspan1572" dy="21" x="60.5"><tspan id="SvgjsTspan1573" style="text-decoration:;">image decode</tspan></tspan></text></g></g><g id="SvgjsG1574" transform="translate(840.4161946136426,319.76912958582716)"><path id="SvgjsPath1575" d="M 0 18Q 0 0 18 0L 95.33333333333348 0Q 113.33333333333348 0 113.33333333333348 18L 113.33333333333348 21.154471352757923Q 113.33333333333348 39.15447135275792 95.33333333333348 39.15447135275792L 18 39.15447135275792Q 0 39.15447135275792 0 21.154471352757923L 0 18Z" stroke="rgba(50,50,50,1)" stroke-width="2" fill-opacity="1" fill="#ffffff"></path><g id="SvgjsG1576"><text id="SvgjsText1577" font-family="&quot;Times New Roman&quot;" text-anchor="middle" font-size="17px" width="94px" fill="#323232" font-weight="400" align="middle" lineHeight="125%" anchor="middle" family="&quot;Times New Roman&quot;" size="17px" weight="400" font-style="" opacity="1" y="6.952235676378962" transform="rotate(0)"><tspan id="SvgjsTspan1578" dy="21" x="57"><tspan id="SvgjsTspan1579" style="text-decoration:;">result encode</tspan></tspan></text></g></g><g id="SvgjsG1580"><path id="SvgjsPath1581" d="M809.7170197948717 216.85694291856566L897.0828612803091 216.85694291856566L897.0828612803091 245.5902676052517" stroke="#323232" stroke-width="2" fill="none" marker-end="url(#SvgjsMarker1582)"></path></g><g id="SvgjsG1584" transform="translate(690.7087047790519,354.2173402285506)"><path id="SvgjsPath1585" d="M 0 18Q 0 0 18 0L 123.49501927756876 0Q 141.49501927756876 0 141.49501927756876 18L 141.49501927756876 35.33334181043841Q 141.49501927756876 53.33334181043841 123.49501927756876 53.33334181043841L 18 53.33334181043841Q 0 53.33334181043841 0 35.33334181043841L 0 18Z" stroke="rgba(50,50,50,1)" stroke-width="2" fill-opacity="1" fill="#ffffff"></path><g id="SvgjsG1586"><text id="SvgjsText1587" font-family="&quot;Times New Roman&quot;" text-anchor="middle" font-size="17px" width="122px" fill="#323232" font-weight="400" align="middle" lineHeight="125%" anchor="middle" family="&quot;Times New Roman&quot;" size="17px" weight="400" font-style="" opacity="1" y="3.541670905219206" transform="rotate(0)"><tspan id="SvgjsTspan1588" dy="21" x="71"><tspan id="SvgjsTspan1589" style="text-decoration:;">traditional CV </tspan></tspan><tspan id="SvgjsTspan1590" dy="21" x="71"><tspan id="SvgjsTspan1591" style="text-decoration:;">algorithm</tspan></tspan></text></g></g><g id="SvgjsG1592"><path id="SvgjsPath1593" d="M832.2037240566211 380.8840111337696L897.0828612803091 380.8840111337696L897.0828612803091 358.92360093858514" stroke="#323232" stroke-width="2" fill="none" marker-end="url(#SvgjsMarker1594)"></path></g><g id="SvgjsG1596"><path id="SvgjsPath1597" d="M757.6304995383078 158.97916571299237L757.6304995383078 177.35708029214575L757.6304995383077 177.35708029214575L757.6304995383077 195.73499487129914" stroke="#323232" stroke-width="2" fill="none" marker-end="url(#SvgjsMarker1598)"></path></g><g id="SvgjsG1600"><path id="SvgjsPath1601" d="M761.4236449568084 434.4791564941406L761.4236449568084 421.0149192665648L761.4562144178363 421.0149192665648L761.4562144178363 407.550682038989" stroke="#323232" stroke-width="2" fill="none" marker-end="url(#SvgjsMarker1602)"></path></g><g id="SvgjsG1604" transform="matrix(-1.8369701987210297e-16,-1,1,-1.8369701987210297e-16,1010.448611940485,371.2993809834537)"><path id="SvgjsPath1605" d="M 0 4Q 0 0 4 0L 125.70911352940743 0Q 129.70911352940743 0 129.70911352940743 4L 129.70911352940743 16Q 129.70911352940743 20 125.70911352940743 20L 4 20Q 0 20 0 16Z" stroke="none" fill-opacity="1" fill="#323232"></path></g><g id="SvgjsG1606"><path id="SvgjsPath1607" d="M1030.4485922919375 298.3848916811301L1060.4485922919375 298.3848916811301L1060.4485922919375 530.6180542310077L540.61388186859 530.6180542310077" stroke="#323232" stroke-width="2" fill="none" marker-end="url(#SvgjsMarker1608)"></path><rect id="SvgjsRect1610" width="223" height="21" x="741.0147081225987" y="535.1180542310077" fill="#ffffff"></rect><text id="SvgjsText1611" font-family="&quot;Times New Roman&quot;" text-anchor="middle" font-size="17px" width="223px" fill="#323232" font-weight="400" align="top" lineHeight="21px" anchor="middle" family="&quot;Times New Roman&quot;" size="17px" weight="400" font-style="" opacity="1" y="532.9930542310077" transform="rotate(0)"><tspan id="SvgjsTspan1612" dy="21" x="852.5147081225987"><tspan id="SvgjsTspan1613" style="text-decoration:;">send message through serial port</tspan></tspan></text></g><g id="SvgjsG1614" transform="translate(373.7496703975976,495.6458323796587)"><path id="SvgjsPath1615" d="M 0 0L 166.86421147099247 0L 166.86421147099247 69.94444370269798L 0 69.94444370269798Z" stroke="rgba(50,50,50,1)" stroke-width="2" fill-opacity="1" fill="#ffffff"></path><g id="SvgjsG1616"><text id="SvgjsText1617" font-family="&quot;Times New Roman&quot;" text-anchor="middle" font-size="17px" width="147px" fill="#323232" font-weight="400" align="middle" lineHeight="125%" anchor="middle" family="&quot;Times New Roman&quot;" size="17px" weight="400" font-style="" opacity="1" y="1.8472218513489906" transform="rotate(0)"><tspan id="SvgjsTspan1618" dy="21" x="83.5"><tspan id="SvgjsTspan1619" style="text-decoration:;"> Development Board </tspan></tspan><tspan id="SvgjsTspan1620" dy="21" x="83.5"><tspan id="SvgjsTspan1621" style="text-decoration:;">Type A</tspan></tspan><tspan id="SvgjsTspan1622" dy="21" x="83.5"><tspan id="SvgjsTspan1623" style="text-decoration:;">(electric control)</tspan></tspan></text></g></g><g id="SvgjsG1624"><path id="SvgjsPath1625" d="M86.25413767496752 98.4124984741211L86.25413767496752 159.3534675174293L86.25413767496752 159.3534675174293L86.25413767496752 220.29443656073747" stroke="#323232" stroke-width="2" fill="none" marker-end="url(#SvgjsMarker1626)"></path><rect id="SvgjsRect1628" width="106" height="21" x="33.254137674967524" y="148.8534675174293" fill="#ffffff"></rect><text id="SvgjsText1629" font-family="&quot;Times New Roman&quot;" text-anchor="middle" font-size="17px" width="106px" fill="#323232" font-weight="400" align="top" lineHeight="21px" anchor="middle" family="&quot;Times New Roman&quot;" size="17px" weight="400" font-style="" opacity="1" y="146.7284675174293" transform="rotate(0)"><tspan id="SvgjsTspan1630" dy="21" x="86.25413767496752"><tspan id="SvgjsTspan1631" style="text-decoration:;">capture a frame</tspan></tspan></text></g><g id="SvgjsG1632"><path id="SvgjsPath1633" d="M457.18177613309376 495.6458323796587L457.18177613309376 417.89583222071315L457.4374694824219 417.89583222071315L457.4374694824219 340.1458320617675" stroke="#323232" stroke-width="2" fill="none" marker-end="url(#SvgjsMarker1634)"></path><rect id="SvgjsRect1636" width="111" height="21" x="401.8096228077578" y="407.39583222071315" fill="#ffffff"></rect><text id="SvgjsText1637" font-family="&quot;Times New Roman&quot;" text-anchor="middle" font-size="17px" width="111px" fill="#323232" font-weight="400" align="top" lineHeight="21px" anchor="middle" family="&quot;Times New Roman&quot;" size="17px" weight="400" font-style="" opacity="1" y="405.27083222071315" transform="rotate(0)"><tspan id="SvgjsTspan1638" dy="21" x="457.3096228077578"><tspan id="SvgjsTspan1639" style="text-decoration:;">receive message</tspan></tspan></text></g><g id="SvgjsG1640"><path id="SvgjsPath1641" d="M953.7495279469761 339.3463652622061L982.3490605433121 339.3463652622061L982.3490605433121 339.36805555555554L1010.9485931396484 339.36805555555554" stroke="#323232" stroke-width="2" fill="none" marker-end="url(#SvgjsMarker1642)"></path></g><g id="SvgjsG1644"><path id="SvgjsPath1645" d="M953.7470458981693 263.8522006982456L982.3478195189089 263.8522006982456L982.3478195189089 263.8125L1010.9485931396484 263.8125" stroke="#323232" stroke-width="2" fill="none" marker-end="url(#SvgjsMarker1646)"></path></g></svg>